# File created by Blade
# Date/Time:  Wed Jan 21 17:05:57 2015
# Frame Rate: 120.000 fps
#------------------------------------------------------
:FULLY-SPECIFIED
:DEGREES
87
root 19.379645 35.678558 -22.371490 -173.900378 -1.217608 -179.504862
Spine -14.978203 -0.175714 -0.834708
Head 7.441151 -1.208929 1.590889
LeftShoulder -8.534967 -31.688001 16.291382
LeftArm 4.001323 4.049562 -9.502976
LeftForeArm 3.495673 -0.000000 -3.539601
LeftHand -8.783365 -0.000000 -2.555584
LeftHandThumb1 -26.253704 0.000000 33.147579
RightShoulder -9.392515 -5.704735 -7.514544
RightArm 9.802663 34.984445 12.065206
RightForeArm -33.048319 -0.000000 3.773948
RightHand -6.629495 -0.000000 7.047797
RightHandThumb1 -24.326973 -0.000000 -32.862282
LeftUpLeg -0.533305 10.316517 2.393650
LeftLeg -1.628245 -0.000000 0.000000
LeftFoot -20.079624 24.973437 -15.410695
LeftToeBase 23.955823 -0.000000 -0.000000
RightUpLeg -0.962382 -8.985423 -1.345394
RightLeg -0.270292 -0.000000 0.000000
RightFoot -21.122989 -23.009770 18.068975
RightToeBase 23.351986 -0.000000 -0.000000
88
root 19.379134 35.685712 -22.310540 -173.850108 -1.161855 -179.521812
Spine -14.686705 -0.124098 -0.861930
Head 7.222665 -1.302922 1.572774
LeftShoulder -8.454202 -31.752055 16.251940
LeftArm 4.085016 4.122353 -9.371965
LeftForeArm 3.499791 -0.000000 -3.561579
LeftHand -8.586109 -0.000000 -2.649791
LeftHandThumb1 -26.253704 0.000000 33.147579
RightShoulder -9.303018 -5.531419 -7.575185
RightArm 9.763847 34.884671 11.894603
RightForeArm -33.122691 -0.000000 3.838250
RightHand -6.513173 -0.000000 7.018623
RightHandThumb1 -24.326973 -0.000000 -32.862282
LeftUpLeg -0.849315 10.356837 2.337275
LeftLeg -1.301264 -0.000000 0.000000
LeftFoot -20.123407 24.999938 -15.417746
LeftToeBase 23.909779 -0.000000 -0.000000
RightUpLeg -1.250643 -8.992536 -1.339682
RightLeg -0.025060 -0.000000 0.000000
RightFoot -21.131203 -22.977211 18.057884
RightToeBase 23.308779 -0.000000 -0.000000
89
root 19.382513 35.693211 -22.259082 -173.850503 -1.134779 -179.533286
Spine -14.340918 -0.093855 -0.892845
Head 7.010117 -1.227408 1.605553
LeftShoulder -8.401056 -31.789723 16.256101
LeftArm 4.199738 4.278077 -9.292984
LeftForeArm 3.428804 -0.000000 -3.539889
LeftHand -8.642653 -0.000000 -2.371063
LeftHandThumb1 -26.253704 0.000000 33.147579
RightShoulder -9.222524 -5.444195 -7.624646
RightArm 9.760548 34.821244 11.740050
RightForeArm -33.205592 -0.000000 3.839901
RightHand -6.656871 -0.000000 6.841822
RightHandThumb1 -24.326973 -0.000000 -32.862282
LeftUpLeg -1.097524 10.413374 2.305589
LeftLeg -0.989225 -0.000000 0.000000
LeftFoot -20.164644 24.991879 -15.443146
LeftToeBase 23.915435 -0.000000 -0.000000
RightUpLeg -1.444541 -9.089633 -1.330236
RightLeg 0.168631 -0.000000 -0.000000
RightFoot -21.137852 -22.932612 18.076797
RightToeBase 23.124820 -0.000000 -0.000000
90
root 19.384483 35.700389 -22.196442 -173.825792 -1.084479 -179.543178
Spine -13.987641 -0.023846 -0.919253
Head 6.786939 -1.323527 1.586325
LeftShoulder -8.301177 -31.859162 16.228271
LeftArm 4.297385 4.226562 -9.202706
LeftForeArm 3.564172 0.000000 -3.542874
LeftHand -8.628227 -0.000000 -2.200036
LeftHandThumb1 -26.253704 0.000000 33.147579
RightShoulder -9.191837 -5.459554 -7.610172
RightArm 9.850788 34.769833 11.525422
RightForeArm -33.038086 -0.000000 3.874209
RightHand -6.894194 -0.000000 6.758926
RightHandThumb1 -24.326973 -0.000000 -32.862282
LeftUpLeg -1.398829 10.519838 2.261501
LeftLeg -0.654814 -0.000000 0.000000
LeftFoot -20.205312 24.965898 -15.436599
LeftToeBase 23.897979 -0.000000 -0.000000
RightUpLeg -1.711679 -9.095809 -1.315133
RightLeg 0.416756 -0.000000 -0.000000
RightFoot -21.143828 -22.897665 18.094339
RightToeBase 23.093120 -0.000000 -0.000000
91
root 19.387378 35.707160 -22.135060 -173.815275 -1.011002 -179.565356
Spine -13.618929 0.034012 -0.971465
Head 6.609887 -1.265301 1.622811
LeftShoulder -8.219972 -31.988014 16.277566
LeftArm 4.344092 4.332870 -9.131920
LeftForeArm 3.583735 -0.000000 -3.518839
LeftHand -8.558505 0.000000 -2.082323
LeftHandThumb1 -26.253704 0.000000 33.147579
RightShoulder -9.031513 -5.226948 -7.705207
RightArm 9.736925 34.560712 11.320865
RightForeArm -32.891920 -0.000000 3.905422
RightHand -7.023637 -0.000000 6.628229
RightHandThumb1 -24.326973 -0.000000 -32.862282
LeftUpLeg -1.665485 10.638743 2.207911
LeftLeg -0.348770 -0.000000 0.000000
LeftFoot -20.229322 24.947875 -15.461923
LeftToeBase 23.869929 -0.000000 -0.000000
RightUpLeg -1.970295 -9.152760 -1.313818
RightLeg 0.672798 -0.000000 -0.000000
RightFoot -21.131566 -22.757085 18.055773
RightToeBase 23.254672 -0.000000 -0.000000
92
root 19.389319 35.714752 -22.070521 -173.823929 -0.982336 -179.575414
Spine -13.194263 0.052342 -0.985832
Head 6.368251 -1.331023 1.611366
LeftShoulder -8.158042 -32.094509 16.275717
LeftArm 4.449990 4.433228 -9.029584
LeftForeArm 3.644557 -0.000000 -3.497427
LeftHand -8.523192 -0.000000 -1.882935
LeftHandThumb1 -26.253704 0.000000 33.147579
RightShoulder -9.007447 -5.165543 -7.718919
RightArm 9.975430 34.624963 11.202255
RightForeArm -32.830647 -0.000000 3.768489
RightHand -7.024888 0.000000 6.491091
RightHandThumb1 -24.326973 -0.000000 -32.862282
LeftUpLeg -1.928429 10.711938 2.175910
LeftLeg -0.026101 -0.000000 0.000000
LeftFoot -20.214162 24.896682 -15.418670
LeftToeBase 23.809951 -0.000000 -0.000000
RightUpLeg -2.202394 -9.212489 -1.303694
RightLeg 0.922518 -0.000000 -0.000000
RightFoot -21.135827 -22.717368 18.093469
RightToeBase 23.071105 -0.000000 -0.000000
93
root 19.390614 35.720652 -22.000049 -173.822741 -0.913580 -179.600568
Spine -12.759862 0.104294 -1.029650
Head 6.182545 -1.321657 1.619934
LeftShoulder -8.063373 -32.182750 16.265088
LeftArm 4.559159 4.434594 -8.909831
LeftForeArm 3.697912 -0.000000 -3.519141
LeftHand -8.400047 -0.000000 -1.536183
LeftHandThumb1 -26.253704 0.000000 33.147579
RightShoulder -8.860707 -5.033684 -7.808075
RightArm 9.946075 34.491867 11.025002
RightForeArm -32.351229 0.000000 3.783356
RightHand -7.284898 0.000000 6.346910
RightHandThumb1 -24.326973 -0.000000 -32.862282
LeftUpLeg -2.199596 10.845079 2.107367
LeftLeg 0.267763 -0.000000 -0.000000
LeftFoot -20.261902 24.910492 -15.478459
LeftToeBase 23.800519 -0.000000 -0.000000
RightUpLeg -2.478415 -9.255665 -1.310125
RightLeg 1.208625 -0.000000 -0.000000
RightFoot -21.160602 -22.622870 18.068156
RightToeBase 23.106695 -0.000000 -0.000000
94
root 19.393364 35.728040 -21.918432 -173.717185 -0.806380 -179.584541
Spine -12.424866 0.194241 -1.015189
Head 5.979321 -1.358886 1.610840
LeftShoulder -8.011937 -32.309231 16.278433
LeftArm 4.684842 4.513291 -8.818601
LeftForeArm 3.851674 -0.000000 -3.533611
LeftHand -8.420693 -0.000000 -1.229649
LeftHandThumb1 -26.253704 0.000000 33.147579
RightShoulder -8.734452 -4.874147 -7.933369
RightArm 10.018860 34.575883 10.951996
RightForeArm -32.205550 -0.000000 3.751413
RightHand -7.360925 0.000000 6.069833
RightHandThumb1 -24.326973 -0.000000 -32.862282
LeftUpLeg -2.633905 11.101913 2.059930
LeftLeg 0.650250 -0.000000 -0.000000
LeftFoot -20.288052 24.813266 -15.452156
LeftToeBase 23.805451 -0.000000 -0.000000
RightUpLeg -2.918063 -9.218713 -1.253597
RightLeg 1.557000 -0.000000 -0.000000
RightFoot -21.183002 -22.577914 18.125417
RightToeBase 23.107385 -0.000000 -0.000000
95
root 19.398984 35.733100 -21.846162 -173.757584 -0.809759 -179.574576
Spine -11.916991 0.180462 -1.004609
Head 5.810822 -1.356577 1.589434
LeftShoulder -7.900858 -32.483874 16.279865
LeftArm 4.748977 4.680606 -8.702145
LeftForeArm 3.774089 -0.000000 -3.496831
LeftHand -8.346793 -0.000000 -0.998305
LeftHandThumb1 -26.253704 0.000000 33.147579
RightShoulder -8.627647 -4.753529 -7.982971
RightArm 10.114574 34.571109 10.771217
RightForeArm -31.894641 0.000000 3.715695
RightHand -7.311042 -0.000000 5.799487
RightHandThumb1 -24.326973 -0.000000 -32.862282
LeftUpLeg -2.900440 11.215173 2.053710
LeftLeg 0.995162 -0.000000 -0.000000
LeftFoot -20.300516 24.746410 -15.393792
LeftToeBase 23.845342 -0.000000 -0.000000
RightUpLeg -3.158948 -9.332043 -1.214195
RightLeg 1.862757 -0.000000 -0.000000
RightFoot -21.207017 -22.477523 18.152027
RightToeBase 23.164703 -0.000000 -0.000000
